<svg width="432" height="432" viewBox="0 0 432 432" fill="none" xmlns="http://www.w3.org/2000/svg">
  <path fill-rule="evenodd" clip-rule="evenodd"
    d="M215.98 343.519C215.122 343.519 214.317 343.465 213.566 343.358C212.815 343.251 212.118 343.09 211.475 342.876C182.726 334.294 159.126 316.648 140.676 289.937C122.225 263.227 113 233.888 113 201.922V138.846C113 134.77 114.18 131.069 116.54 127.744C118.9 124.418 121.903 122.005 125.551 120.503L209.222 89.2873C211.582 88.4291 213.835 88 215.98 88C218.125 88 220.378 88.4291 222.738 89.2873L306.409 120.503C310.056 122.005 313.06 124.418 315.42 127.744C317.78 131.069 318.96 134.77 318.96 138.846V201.922C318.96 233.888 309.735 263.227 291.284 289.937C272.834 316.648 249.234 334.294 220.485 342.876L215.98 343.519ZM299.651 138.846V201.922L299.651 202.137V138.846L299.651 138.846ZM187.6 275.45C194.9 278.55 202.75 280.1 211.15 280.1C219.55 280.1 227.375 278.55 234.625 275.45C241.875 272.35 248.2 268.1 253.6 262.7C259 257.3 263.25 250.925 266.35 243.575C269.45 236.225 271 228.35 271 219.95C271 218.15 270.95 216.3 270.85 214.4C270.75 212.5 270.6 211.05 270.4 210.05H261.4C261.6 211.35 261.75 213.075 261.85 215.225C261.95 217.375 262 219.2 262 220.7C262 226.7 260.85 232.625 258.55 238.475C256.25 244.325 252.85 249.8 248.35 254.9C247.55 252.3 246.025 250.2 243.775 248.6C241.525 247 238.95 246.2 236.05 246.2H230.05V227.15C230.05 225.15 229.375 223.475 228.025 222.125C226.675 220.775 225 220.1 223 220.1H185.05V207.05H197.05C198.95 207.05 200.575 206.375 201.925 205.025C203.275 203.675 203.95 202.05 203.95 200.15V188.15H221.05C224.45 188.15 227.475 186.825 230.125 184.175C232.775 181.525 234.1 178.5 234.1 175.1V164.3C231.7 163.2 228.2 162.225 223.6 161.375C219 160.525 214.45 160.1 209.95 160.1C201.85 160.1 194.225 161.65 187.075 164.75C179.925 167.85 173.675 172.1 168.325 177.5C162.975 182.9 158.75 189.25 155.65 196.55C152.55 203.85 151 211.7 151 220.1C151 228.5 152.55 236.35 155.65 243.65C158.75 250.95 163.025 257.3 168.475 262.7C173.925 268.1 180.3 272.35 187.6 275.45ZM203.95 258.2V271.85C191.25 270.05 180.75 264.25 172.45 254.45C164.15 244.65 160 233.05 160 219.65C160 217.95 160.075 216.375 160.225 214.925C160.375 213.475 160.65 211.6 161.05 209.3L191.95 240.2V246.2C191.95 249.5 193.125 252.325 195.475 254.675C197.825 257.025 200.65 258.2 203.95 258.2ZM244.375 199.775C245.225 200.625 246.3 201.05 247.6 201.05H275.65C276.95 201.05 278.025 200.625 278.875 199.775C279.725 198.925 280.15 197.85 280.15 196.55V174.65C280.15 173.35 279.725 172.275 278.875 171.425C278.025 170.575 276.95 170.15 275.65 170.15H273.1V164.15C273.1 160.85 271.975 158 269.725 155.6C267.475 153.2 264.75 152 261.55 152C258.35 152 255.625 153.2 253.375 155.6C251.125 158 250 160.85 250 164.15V170.15H247.6C246.3 170.15 245.225 170.575 244.375 171.425C243.525 172.275 243.1 173.35 243.1 174.65V196.55C243.1 197.85 243.525 198.925 244.375 199.775ZM268 164.15V170.15H255.1V164.15C255.1 162.25 255.7 160.6 256.9 159.2C258.1 157.8 259.65 157.1 261.55 157.1C263.45 157.1 265 157.8 266.2 159.2C267.4 160.6 268 162.25 268 164.15Z"
    fill="#00AA61" />
  <path
    d="M215.98 343.519V344.119H216.023L216.065 344.113L215.98 343.519ZM211.475 342.876L211.664 342.306L211.655 342.303L211.646 342.301L211.475 342.876ZM140.676 289.937L141.17 289.596L141.17 289.596L140.676 289.937ZM116.54 127.744L117.029 128.091L117.029 128.091L116.54 127.744ZM125.551 120.503L125.341 119.941L125.332 119.944L125.322 119.948L125.551 120.503ZM209.222 89.2873L209.017 88.7234L209.012 88.7251L209.222 89.2873ZM222.738 89.2873L222.948 88.7251L222.943 88.7234L222.738 89.2873ZM306.409 120.503L306.638 119.948L306.628 119.944L306.619 119.941L306.409 120.503ZM315.42 127.744L314.931 128.091L314.931 128.091L315.42 127.744ZM291.284 289.937L291.778 290.278L291.778 290.278L291.284 289.937ZM220.485 342.876L220.57 343.469L220.614 343.463L220.657 343.45L220.485 342.876ZM299.651 201.922L300.251 201.922V201.922H299.651ZM299.651 138.846H300.251V138.431L299.862 138.285L299.651 138.846ZM299.651 202.137H299.051L300.251 202.138L299.651 202.137ZM299.651 138.846L299.862 138.285L299.051 137.981V138.846H299.651ZM187.6 275.45L187.365 276.002L187.365 276.002L187.6 275.45ZM234.625 275.45L234.861 276.002L234.861 276.002L234.625 275.45ZM253.6 262.7L253.176 262.276L253.176 262.276L253.6 262.7ZM266.35 243.575L265.797 243.342L265.797 243.342L266.35 243.575ZM270.85 214.4L270.251 214.432L270.251 214.432L270.85 214.4ZM270.4 210.05L270.988 209.932L270.892 209.45H270.4V210.05ZM261.4 210.05V209.45H260.701L260.807 210.141L261.4 210.05ZM261.85 215.225L261.251 215.253L261.251 215.253L261.85 215.225ZM258.55 238.475L257.992 238.255L257.992 238.255L258.55 238.475ZM248.35 254.9L247.777 255.076L248.091 256.1L248.8 255.297L248.35 254.9ZM243.775 248.6L243.427 249.089L243.427 249.089L243.775 248.6ZM230.05 246.2H229.45V246.8H230.05V246.2ZM228.025 222.125L228.449 221.701L228.449 221.701L228.025 222.125ZM185.05 220.1H184.45V220.7H185.05V220.1ZM185.05 207.05V206.45H184.45V207.05H185.05ZM203.95 188.15V187.55H203.35V188.15H203.95ZM230.125 184.175L229.701 183.751L229.701 183.751L230.125 184.175ZM234.1 164.3H234.7V163.915L234.35 163.755L234.1 164.3ZM223.6 161.375L223.709 160.785L223.709 160.785L223.6 161.375ZM168.325 177.5L168.751 177.922L168.751 177.922L168.325 177.5ZM155.65 196.55L156.202 196.785L156.202 196.785L155.65 196.55ZM155.65 243.65L155.098 243.885L155.098 243.885L155.65 243.65ZM168.475 262.7L168.897 262.274L168.897 262.274L168.475 262.7ZM203.95 271.85L203.866 272.444L204.55 272.541V271.85H203.95ZM203.95 258.2H204.55V257.6H203.95V258.2ZM172.45 254.45L172.908 254.062L172.908 254.062L172.45 254.45ZM160.225 214.925L159.628 214.863L159.628 214.863L160.225 214.925ZM161.05 209.3L161.474 208.876L160.657 208.058L160.459 209.197L161.05 209.3ZM191.95 240.2H192.55V239.951L192.374 239.776L191.95 240.2ZM244.375 199.775L244.799 199.351L244.799 199.351L244.375 199.775ZM278.875 199.775L279.299 200.199L279.299 200.199L278.875 199.775ZM278.875 171.425L279.299 171.001L279.299 171.001L278.875 171.425ZM273.1 170.15H272.5V170.75H273.1V170.15ZM250 170.15V170.75H250.6V170.15H250ZM244.375 171.425L244.799 171.849L244.799 171.849L244.375 171.425ZM268 170.15V170.75H268.6V170.15H268ZM255.1 170.15H254.5V170.75H255.1V170.15ZM256.9 159.2L256.444 158.81L256.444 158.81L256.9 159.2ZM266.2 159.2L266.656 158.81L266.656 158.81L266.2 159.2ZM213.482 343.952C214.264 344.064 215.097 344.119 215.98 344.119V342.919C215.147 342.919 214.371 342.867 213.651 342.764L213.482 343.952ZM211.285 343.445C211.966 343.672 212.699 343.84 213.482 343.952L213.651 342.764C212.932 342.661 212.27 342.508 211.664 342.306L211.285 343.445ZM140.182 290.278C158.704 317.091 182.413 334.826 211.303 343.45L211.646 342.301C183.04 333.761 159.549 316.204 141.17 289.596L140.182 290.278ZM112.4 201.922C112.4 234.012 121.664 263.469 140.182 290.278L141.17 289.596C122.787 262.984 113.6 233.765 113.6 201.922H112.4ZM112.4 138.846V201.922H113.6V138.846H112.4ZM116.051 127.397C113.619 130.823 112.4 134.646 112.4 138.846H113.6C113.6 134.895 114.741 131.315 117.029 128.091L116.051 127.397ZM125.322 119.948C121.567 121.495 118.474 123.982 116.051 127.397L117.029 128.091C119.326 124.855 122.24 122.515 125.779 121.058L125.322 119.948ZM209.012 88.7251L125.341 119.941L125.76 121.065L209.432 89.8494L209.012 88.7251ZM215.98 87.4C213.754 87.4 211.432 87.8453 209.017 88.7234L209.427 89.8511C211.732 89.0129 213.915 88.6 215.98 88.6V87.4ZM222.943 88.7234C220.528 87.8453 218.206 87.4 215.98 87.4V88.6C218.045 88.6 220.228 89.0129 222.533 89.8511L222.943 88.7234ZM306.619 119.941L222.948 88.7251L222.528 89.8494L306.2 121.065L306.619 119.941ZM315.909 127.397C313.486 123.982 310.393 121.495 306.638 119.948L306.181 121.058C309.72 122.515 312.634 124.855 314.931 128.091L315.909 127.397ZM319.56 138.846C319.56 134.646 318.341 130.823 315.909 127.397L314.931 128.091C317.219 131.315 318.36 134.895 318.36 138.846H319.56ZM319.56 201.922V138.846H318.36V201.922H319.56ZM291.778 290.278C310.296 263.469 319.56 234.012 319.56 201.922H318.36C318.36 233.765 309.173 262.984 290.79 289.596L291.778 290.278ZM220.657 343.45C249.547 334.826 273.256 317.091 291.778 290.278L290.79 289.596C272.411 316.204 248.92 333.761 220.314 342.301L220.657 343.45ZM216.065 344.113L220.57 343.469L220.401 342.282L215.895 342.925L216.065 344.113ZM300.251 201.922V138.846H299.051V201.922H300.251ZM300.251 202.138L300.251 201.922L299.051 201.921L299.051 202.137L300.251 202.138ZM299.051 138.846V202.137H300.251V138.846H299.051ZM299.862 138.285L299.862 138.285L299.44 139.408L299.441 139.408L299.862 138.285ZM211.15 279.5C202.826 279.5 195.056 277.964 187.835 274.898L187.365 276.002C194.744 279.136 202.674 280.7 211.15 280.7V279.5ZM234.389 274.898C227.218 277.964 219.474 279.5 211.15 279.5V280.7C219.626 280.7 227.532 279.136 234.861 276.002L234.389 274.898ZM253.176 262.276C247.832 267.62 241.571 271.827 234.389 274.898L234.861 276.002C242.179 272.873 248.568 268.58 254.024 263.124L253.176 262.276ZM265.797 243.342C262.726 250.624 258.519 256.933 253.176 262.276L254.024 263.124C259.481 257.667 263.774 251.226 266.903 243.808L265.797 243.342ZM270.4 219.95C270.4 228.274 268.864 236.07 265.797 243.342L266.903 243.808C270.036 236.381 271.6 228.426 271.6 219.95H270.4ZM270.251 214.432C270.35 216.322 270.4 218.161 270.4 219.95H271.6C271.6 218.139 271.55 216.278 271.449 214.368L270.251 214.432ZM269.812 210.168C270.003 211.125 270.151 212.54 270.251 214.432L271.449 214.368C271.349 212.46 271.197 210.975 270.988 209.932L269.812 210.168ZM261.4 210.65H270.4V209.45H261.4V210.65ZM262.449 215.197C262.349 213.037 262.198 211.289 261.993 209.959L260.807 210.141C261.002 211.411 261.151 213.113 261.251 215.253L262.449 215.197ZM262.6 220.7C262.6 219.188 262.55 217.353 262.449 215.197L261.251 215.253C261.35 217.397 261.4 219.212 261.4 220.7H262.6ZM259.108 238.695C261.435 232.778 262.6 226.779 262.6 220.7H261.4C261.4 226.621 260.265 232.472 257.992 238.255L259.108 238.695ZM248.8 255.297C253.342 250.149 256.781 244.615 259.108 238.695L257.992 238.255C255.719 244.035 252.358 249.451 247.9 254.503L248.8 255.297ZM243.427 249.089C245.571 250.614 247.016 252.605 247.777 255.076L248.923 254.724C248.084 251.995 246.479 249.786 244.123 248.111L243.427 249.089ZM236.05 246.8C238.832 246.8 241.284 247.565 243.427 249.089L244.123 248.111C241.766 246.435 239.068 245.6 236.05 245.6V246.8ZM230.05 246.8H236.05V245.6H230.05V246.8ZM229.45 227.15V246.2H230.65V227.15H229.45ZM227.601 222.549C228.832 223.781 229.45 225.301 229.45 227.15H230.65C230.65 224.999 229.918 223.169 228.449 221.701L227.601 222.549ZM223 220.7C224.849 220.7 226.369 221.318 227.601 222.549L228.449 221.701C226.981 220.232 225.151 219.5 223 219.5V220.7ZM185.05 220.7H223V219.5H185.05V220.7ZM184.45 207.05V220.1H185.65V207.05H184.45ZM197.05 206.45H185.05V207.65H197.05V206.45ZM201.501 204.601C200.263 205.839 198.79 206.45 197.05 206.45V207.65C199.11 207.65 200.887 206.911 202.349 205.449L201.501 204.601ZM203.35 200.15C203.35 201.89 202.739 203.363 201.501 204.601L202.349 205.449C203.811 203.987 204.55 202.21 204.55 200.15H203.35ZM203.35 188.15V200.15H204.55V188.15H203.35ZM221.05 187.55H203.95V188.75H221.05V187.55ZM229.701 183.751C227.151 186.301 224.274 187.55 221.05 187.55V188.75C224.626 188.75 227.799 187.349 230.549 184.599L229.701 183.751ZM233.5 175.1C233.5 178.324 232.251 181.201 229.701 183.751L230.549 184.599C233.299 181.849 234.7 178.676 234.7 175.1H233.5ZM233.5 164.3V175.1H234.7V164.3H233.5ZM223.491 161.965C228.074 162.812 231.517 163.776 233.85 164.845L234.35 163.755C231.883 162.624 228.326 161.638 223.709 160.785L223.491 161.965ZM209.95 160.7C214.412 160.7 218.926 161.121 223.491 161.965L223.709 160.785C219.074 159.929 214.488 159.5 209.95 159.5V160.7ZM187.314 165.3C194.385 162.234 201.929 160.7 209.95 160.7V159.5C201.771 159.5 194.065 161.066 186.836 164.2L187.314 165.3ZM168.751 177.922C174.046 172.578 180.232 168.371 187.314 165.3L186.836 164.2C179.618 167.329 173.304 171.622 167.899 177.078L168.751 177.922ZM156.202 196.785C159.274 189.551 163.457 183.266 168.751 177.922L167.899 177.078C162.493 182.534 158.226 188.949 155.098 196.315L156.202 196.785ZM151.6 220.1C151.6 211.776 153.136 204.006 156.202 196.785L155.098 196.315C151.964 203.694 150.4 211.624 150.4 220.1H151.6ZM156.202 243.415C153.136 236.194 151.6 228.424 151.6 220.1H150.4C150.4 228.576 151.964 236.506 155.098 243.885L156.202 243.415ZM168.897 262.274C163.505 256.93 159.273 250.646 156.202 243.415L155.098 243.885C158.227 251.254 162.545 257.67 168.053 263.126L168.897 262.274ZM187.835 274.898C180.602 271.826 174.291 267.618 168.897 262.274L168.053 263.126C173.559 268.582 179.998 272.874 187.365 276.002L187.835 274.898ZM204.55 271.85V258.2H203.35V271.85H204.55ZM171.992 254.838C180.387 264.75 191.02 270.623 203.866 272.444L204.034 271.256C191.48 269.477 181.113 263.75 172.908 254.062L171.992 254.838ZM159.4 219.65C159.4 233.185 163.596 244.924 171.992 254.838L172.908 254.062C164.704 244.376 160.6 232.915 160.6 219.65H159.4ZM159.628 214.863C159.476 216.337 159.4 217.933 159.4 219.65H160.6C160.6 217.967 160.674 216.413 160.822 214.987L159.628 214.863ZM160.459 209.197C160.058 211.504 159.78 213.394 159.628 214.863L160.822 214.987C160.97 213.556 161.242 211.696 161.641 209.403L160.459 209.197ZM192.374 239.776L161.474 208.876L160.626 209.724L191.526 240.624L192.374 239.776ZM192.55 246.2V240.2H191.35V246.2H192.55ZM195.899 254.251C193.661 252.012 192.55 249.34 192.55 246.2H191.35C191.35 249.66 192.589 252.638 195.051 255.099L195.899 254.251ZM203.95 257.6C200.81 257.6 198.138 256.489 195.899 254.251L195.051 255.099C197.512 257.561 200.49 258.8 203.95 258.8V257.6ZM247.6 200.45C246.445 200.45 245.527 200.078 244.799 199.351L243.951 200.199C244.923 201.172 246.155 201.65 247.6 201.65V200.45ZM275.65 200.45H247.6V201.65H275.65V200.45ZM278.451 199.351C277.723 200.078 276.805 200.45 275.65 200.45V201.65C277.095 201.65 278.327 201.172 279.299 200.199L278.451 199.351ZM279.55 196.55C279.55 197.705 279.178 198.623 278.451 199.351L279.299 200.199C280.272 199.227 280.75 197.995 280.75 196.55H279.55ZM279.55 174.65V196.55H280.75V174.65H279.55ZM278.451 171.849C279.178 172.577 279.55 173.495 279.55 174.65H280.75C280.75 173.205 280.272 171.973 279.299 171.001L278.451 171.849ZM275.65 170.75C276.805 170.75 277.723 171.122 278.451 171.849L279.299 171.001C278.327 170.028 277.095 169.55 275.65 169.55V170.75ZM273.1 170.75H275.65V169.55H273.1V170.75ZM272.5 164.15V170.15H273.7V164.15H272.5ZM269.287 156.01C271.433 158.299 272.5 161.002 272.5 164.15H273.7C273.7 160.698 272.517 157.701 270.163 155.19L269.287 156.01ZM261.55 152.6C264.579 152.6 267.147 153.728 269.287 156.01L270.163 155.19C267.803 152.672 264.921 151.4 261.55 151.4V152.6ZM253.813 156.01C255.953 153.728 258.521 152.6 261.55 152.6V151.4C258.179 151.4 255.297 152.672 252.937 155.19L253.813 156.01ZM250.6 164.15C250.6 161.002 251.667 158.299 253.813 156.01L252.937 155.19C250.583 157.701 249.4 160.698 249.4 164.15H250.6ZM250.6 170.15V164.15H249.4V170.15H250.6ZM247.6 170.75H250V169.55H247.6V170.75ZM244.799 171.849C245.527 171.122 246.445 170.75 247.6 170.75V169.55C246.155 169.55 244.923 170.028 243.951 171.001L244.799 171.849ZM243.7 174.65C243.7 173.495 244.072 172.577 244.799 171.849L243.951 171.001C242.978 171.973 242.5 173.205 242.5 174.65H243.7ZM243.7 196.55V174.65H242.5V196.55H243.7ZM244.799 199.351C244.072 198.623 243.7 197.705 243.7 196.55H242.5C242.5 197.995 242.978 199.227 243.951 200.199L244.799 199.351ZM268.6 170.15V164.15H267.4V170.15H268.6ZM255.1 170.75H268V169.55H255.1V170.75ZM254.5 164.15V170.15H255.7V164.15H254.5ZM256.444 158.81C255.148 160.322 254.5 162.112 254.5 164.15H255.7C255.7 162.388 256.252 160.878 257.356 159.59L256.444 158.81ZM261.55 156.5C259.481 156.5 257.762 157.272 256.444 158.81L257.356 159.59C258.438 158.328 259.819 157.7 261.55 157.7V156.5ZM266.656 158.81C265.338 157.272 263.619 156.5 261.55 156.5V157.7C263.281 157.7 264.662 158.328 265.744 159.59L266.656 158.81ZM268.6 164.15C268.6 162.112 267.952 160.322 266.656 158.81L265.744 159.59C266.848 160.878 267.4 162.388 267.4 164.15H268.6Z"
    fill="#00AA61" />
</svg>